<?xml version="1.0" encoding="UTF-8" standalone="no"?>
<svg
   xmlns:dc="http://purl.org/dc/elements/1.1/"
   xmlns:cc="http://creativecommons.org/ns#"
   xmlns:rdf="http://www.w3.org/1999/02/22-rdf-syntax-ns#"
   xmlns:svg="http://www.w3.org/2000/svg"
   xmlns="http://www.w3.org/2000/svg"
   viewBox="2000 1500 1333.3335 2333.3335"
   height="5333.3335"
   width="5333.3335"
   xml:space="preserve"
   id="svg2"
   version="1.1"><metadata
     id="metadata8"><rdf:RDF><cc:Work
         rdf:about=""><dc:format>image/svg+xml</dc:format><dc:type
           rdf:resource="http://purl.org/dc/dcmitype/StillImage" /></cc:Work></rdf:RDF></metadata><defs
     id="defs6" /><g
     transform="matrix(1.3333333,0,0,-1.3333333,0,5333.3333)"
     id="g10"><g
       transform="scale(0.1)"
       id="g12"><g
         transform="scale(1.73975)"
         id="g18"><path
           id="path20"
           style="fill:#68acd9;fill-opacity:1;fill-rule:evenodd;stroke:none"
           d="m 13604.6,13627.7 c -148.2,-174.5 -124.3,-320.7 120.2,-430.6 -454.7,-681.8 -1944.1,291 -2679.5,-227.5 l 262.4,-145.4 c -528.4,-131.1 -819.3,-701.4 -652.7,-1307.1 -202,271.5 -346.8,570.1 -494.5,832.7 -246.75,755.4 -133.2,1516.2 487.9,1992.1 173.6,-53.6 269.9,-228.1 377.1,-385.4 -10.6,873 -616.7,1417.7 40.8,2343.5 160.5,-242.9 285.1,-498.9 357.3,-774.1 42.4,-161.7 66.8,-330 69.6,-506.1 57.5,-11.9 113.9,-27.1 169.1,-45.4 162.3,-53.8 314.6,-133.9 454.6,-232.1 281.5,-197.4 513,-468 674.2,-745.1 304.8,-167.8 537,-239.4 813.5,-369.5" /></g><g
         transform="scale(1.57901)"
         id="g22"><path
           id="path24"
           style="fill:#68acd9;fill-opacity:1;fill-rule:evenodd;stroke:none"
           d="m 10509.1,14308.7 c -333.1,-1260.4 292.5,-2057.1 1589.3,-2687.6 -311.1,-427.3 -851.2,-132.1 -1103.7,-624.1 1312.4,-352.6 5044.8,2404.9 5305.3,-1793.34 -830.3,-94.93 -1271,-547.17 -2714.9,-1369.27 C 11052.7,6427.31 8190.88,8453.19 9264.02,11008 9883.2,9054.9 12155.7,8169.22 13453,9604.29 12757.2,10089 11693.7,9413.73 10367.9,10169 c -1262.46,995.3 -711.23,3118.2 141.2,4139.7" /></g><g
         transform="scale(1.36973)"
         id="g26"><path
           id="path28"
           style="fill:#addeff;fill-opacity:1;fill-rule:evenodd;stroke:none"
           d="m 10679.5,12689.9 c 132.8,-418.9 336,-828.5 615.2,-1168.9 901.8,-1151.1 2394.9,-1620.14 3563.6,-970.7 485,83.6 972.6,218.5 1441.7,384 -1065.2,-764.3 -1794.1,-886.7 -2757,-1029.65 639.1,-52.64 1278.8,0 1918.8,109.05 -935.9,-599.51 -2103,-580.97 -3122.3,-421.01 874.9,-423.88 1645,-266.84 2958.6,-184.27 -3054.3,-1370.71 -5396.73,663.88 -4618.6,3281.48" /></g><g
         transform="scale(1.47025)"
         id="g30"><path
           id="path32"
           style="fill:#addeff;fill-opacity:1;fill-rule:evenodd;stroke:none"
           d="m 11286.6,15367.2 c -252.4,-954.8 -379.4,-1707.1 820.2,-2629.3 -136.8,-8.3 -275.5,38.3 -415.2,115.7 97.9,-209.9 259.5,-372.7 453.7,-511.3 -198.4,7 -400.1,72.2 -604.6,188.7 l 116.5,-242 c -294.2,54.9 -568.6,191.8 -813.6,451.9 -2,-203.3 71.9,-389.4 186.4,-566.1 l -430.4,141.4 c 1316.6,-1895.2 3246.8,-443.6 4909.5,-709.1 -451.9,-98.8 -861.1,-195.4 -1163,-398.2 845.8,133.9 1508.7,18.8 1953.9,-392.5 -574.7,89.1 -1153.1,197.3 -1693.9,103.3 338.1,-57.7 620.5,-203.5 844.5,-441.9 -1408.4,430.4 -2731.8,-458.8 -4315.7,443.5 -1355.85,1068.9 -763.8,3348.8 151.7,4445.9" /></g><g
         transform="scale(1.47669)"
         id="g34"><path
           id="path36"
           style="fill:#266a97;fill-opacity:1;fill-rule:evenodd;stroke:none"
           d="m 16169.8,15548.1 c -288,129.5 -316.1,301.8 -141.6,507.4 79.3,-37.3 161.8,-78.9 249.4,-127.1 22.4,-141.8 -23.6,-270 -107.8,-380.3" /></g><g
         transform="scale(1.71156)"
         id="g38"><path
           id="path40"
           style="fill:#68acd9;fill-opacity:1;fill-rule:evenodd;stroke:none"
           d="m 11860.5,15274.8 c 49.7,363.8 277.3,716.9 527.1,1025.2 -139.7,-389.6 -179,-800.6 -87.9,-1239.3 -133.2,88 -276.8,160.3 -428.6,210.6 -3.5,1.2 -7.1,2.3 -10.6,3.5" /></g><g
         transform="scale(1.73975)"
         id="g42"><path
           id="path44"
           style="fill:#addeff;fill-opacity:1;fill-rule:evenodd;stroke:none"
           d="m 11066.3,16300 c -657.5,-925.8 -51.3,-1470.5 -40.8,-2343.5 -107.2,157.3 -203.5,331.8 -377.1,385.4 -621,-475.9 -734.65,-1236.7 -487.9,-1992.1 -290.14,516.1 -591.97,893.1 -1362.19,652.4 56.27,257.3 630.15,954.8 981.52,947.4 -121.46,78.3 -292.28,50.1 -496.28,-51.3 211.75,290.2 467.37,505.6 750.15,674.7 -99.54,49.2 -240.42,19.6 -388.89,-24.4 217.62,218.5 454.19,393.8 729.39,480.9 88,481.4 273.4,930.7 692.1,1270.5" /></g><g
         transform="scale(1.71324)"
         id="g46"><path
           id="path48"
           style="fill:#addeff;fill-opacity:1;fill-rule:evenodd;stroke:none"
           d="m 12375.4,16284 c -249.5,-307.9 -476.9,-660.7 -526.6,-1024.2 -41.5,13.4 -83.4,25.2 -125.9,35.2 -5.8,163.8 -29.7,325.8 -71.4,484.6 -3.1,12 -6.4,24 -9.7,35.9 187.1,212.7 440.6,367.4 739.4,484.5 -1.9,-5.3 -3.9,-10.7 -5.8,-16" /></g><g
         transform="scale(1.3906)"
         id="g50"><path
           id="path52"
           style="fill:#68acd9;fill-opacity:1;fill-rule:evenodd;stroke:none"
           d="m 14685.7,13465.8 c -1536.8,1770.2 -646.7,2447.2 1614.3,2414 -1990.7,-241.6 -2404,-725.4 -1614.3,-2414" /></g><g
         transform="scale(1.687)"
         id="g54"><path
           id="path56"
           style="fill:#266a97;fill-opacity:1;fill-rule:evenodd;stroke:none"
           d="m 11645.3,15587.1 c -3.7,291.3 -70.4,525.3 -200.4,712.9 62.9,-173.5 100.1,-428.6 27.2,-623.9 -47,126.7 -102.7,236.7 -172,321.3 22.2,-115 38.4,-234.6 33.4,-369.4 l -148.5,-48.3 c 199.3,16.3 393.5,-2.7 582.9,-55.6" /></g><g
         transform="scale(1.49816)"
         id="g58"><path
           id="path60"
           style="fill:#266a97;fill-opacity:1;fill-rule:evenodd;stroke:none"
           d="m 14113.2,16300 426.4,-70.5 -404.7,-23.5" /></g><g
         transform="scale(1.50733)"
         id="g62"><path
           id="path64"
           style="fill:#266a97;fill-opacity:1;fill-rule:evenodd;stroke:none"
           d="m 13574.6,16112.6 328.4,187.4 262.8,-156.9 -255.1,-122.1" /></g><g
         transform="scale(1.49888)"
         id="g66"><path
           id="path68"
           style="fill:#266a97;fill-opacity:1;fill-rule:evenodd;stroke:none"
           d="m 14064.1,16300 426.2,-70.4 -404.5,-23.5" /></g><g
         transform="scale(1.50733)"
         id="g70"><path
           id="path72"
           style="fill:#266a97;fill-opacity:1;fill-rule:evenodd;stroke:none"
           d="m 13574.6,16112.6 328.4,187.4 262.8,-156.9 -255.1,-122.1" /></g></g></g></svg>